<mxfile host="app.diagrams.net" modified="2023-11-14T15:55:38.432Z" agent="Mozilla/5.0 (Windows NT 10.0; Win64; x64) AppleWebKit/537.36 (KHTML, like Gecko) Chrome/119.0.0.0 Safari/537.36" etag="eykav6lZvjJgkhR7hnd9" version="22.1.0" type="google">
  <diagram name="Page-1" id="liRkgBR97R6HZM2QQmZx">
    <mxGraphModel grid="1" page="1" gridSize="10" guides="1" tooltips="1" connect="1" arrows="1" fold="1" pageScale="1" pageWidth="827" pageHeight="1169" math="0" shadow="0">
      <root>
        <mxCell id="0" />
        <mxCell id="1" parent="0" />
        <mxCell id="hGEJ_rP9lvM_vHhC3qoH-1" value="Teacher" style="whiteSpace=wrap;html=1;align=center;" vertex="1" parent="1">
          <mxGeometry x="100" y="160" width="100" height="40" as="geometry" />
        </mxCell>
        <mxCell id="hGEJ_rP9lvM_vHhC3qoH-2" value="Student" style="whiteSpace=wrap;html=1;align=center;" vertex="1" parent="1">
          <mxGeometry x="490" y="160" width="100" height="40" as="geometry" />
        </mxCell>
        <mxCell id="hGEJ_rP9lvM_vHhC3qoH-3" value="Class" style="whiteSpace=wrap;html=1;align=center;" vertex="1" parent="1">
          <mxGeometry x="280" y="380" width="100" height="40" as="geometry" />
        </mxCell>
        <mxCell id="hGEJ_rP9lvM_vHhC3qoH-4" value="Test" style="shape=ext;margin=3;double=1;whiteSpace=wrap;html=1;align=center;" vertex="1" parent="1">
          <mxGeometry x="270" y="590" width="100" height="40" as="geometry" />
        </mxCell>
        <mxCell id="hGEJ_rP9lvM_vHhC3qoH-5" value="Question" style="shape=ext;margin=3;double=1;whiteSpace=wrap;html=1;align=center;" vertex="1" parent="1">
          <mxGeometry x="280" y="860" width="100" height="40" as="geometry" />
        </mxCell>
        <mxCell id="hGEJ_rP9lvM_vHhC3qoH-6" value="Answer" style="shape=ext;margin=3;double=1;whiteSpace=wrap;html=1;align=center;" vertex="1" parent="1">
          <mxGeometry x="620" y="650" width="100" height="40" as="geometry" />
        </mxCell>
        <mxCell id="hGEJ_rP9lvM_vHhC3qoH-9" value="Has" style="shape=rhombus;double=1;perimeter=rhombusPerimeter;whiteSpace=wrap;html=1;align=center;" vertex="1" parent="1">
          <mxGeometry x="270" y="470" width="120" height="60" as="geometry" />
        </mxCell>
        <mxCell id="hGEJ_rP9lvM_vHhC3qoH-12" value="" style="shape=link;html=1;rounded=0;" edge="1" parent="1" source="hGEJ_rP9lvM_vHhC3qoH-4" target="hGEJ_rP9lvM_vHhC3qoH-9">
          <mxGeometry relative="1" as="geometry">
            <mxPoint x="300" y="540" as="sourcePoint" />
            <mxPoint x="460" y="540" as="targetPoint" />
          </mxGeometry>
        </mxCell>
        <mxCell id="hGEJ_rP9lvM_vHhC3qoH-13" value="N" style="resizable=0;html=1;whiteSpace=wrap;align=right;verticalAlign=bottom;" connectable="0" vertex="1" parent="hGEJ_rP9lvM_vHhC3qoH-12">
          <mxGeometry x="1" relative="1" as="geometry">
            <mxPoint x="-7" y="22" as="offset" />
          </mxGeometry>
        </mxCell>
        <mxCell id="hGEJ_rP9lvM_vHhC3qoH-14" value="Has" style="shape=rhombus;double=1;perimeter=rhombusPerimeter;whiteSpace=wrap;html=1;align=center;" vertex="1" parent="1">
          <mxGeometry x="270" y="700" width="120" height="60" as="geometry" />
        </mxCell>
        <mxCell id="hGEJ_rP9lvM_vHhC3qoH-15" value="" style="shape=link;html=1;rounded=0;" edge="1" parent="1" source="hGEJ_rP9lvM_vHhC3qoH-5" target="hGEJ_rP9lvM_vHhC3qoH-14">
          <mxGeometry relative="1" as="geometry">
            <mxPoint x="332" y="600" as="sourcePoint" />
            <mxPoint x="337" y="539" as="targetPoint" />
          </mxGeometry>
        </mxCell>
        <mxCell id="hGEJ_rP9lvM_vHhC3qoH-16" value="N" style="resizable=0;html=1;whiteSpace=wrap;align=right;verticalAlign=bottom;" connectable="0" vertex="1" parent="hGEJ_rP9lvM_vHhC3qoH-15">
          <mxGeometry x="1" relative="1" as="geometry">
            <mxPoint x="-7" y="22" as="offset" />
          </mxGeometry>
        </mxCell>
        <mxCell id="hGEJ_rP9lvM_vHhC3qoH-17" value="" style="endArrow=none;html=1;rounded=0;" edge="1" parent="1" source="hGEJ_rP9lvM_vHhC3qoH-3" target="hGEJ_rP9lvM_vHhC3qoH-9">
          <mxGeometry relative="1" as="geometry">
            <mxPoint x="300" y="540" as="sourcePoint" />
            <mxPoint x="460" y="540" as="targetPoint" />
          </mxGeometry>
        </mxCell>
        <mxCell id="hGEJ_rP9lvM_vHhC3qoH-18" value="1" style="resizable=0;html=1;whiteSpace=wrap;align=right;verticalAlign=bottom;" connectable="0" vertex="1" parent="hGEJ_rP9lvM_vHhC3qoH-17">
          <mxGeometry x="1" relative="1" as="geometry" />
        </mxCell>
        <mxCell id="hGEJ_rP9lvM_vHhC3qoH-19" value="" style="endArrow=none;html=1;rounded=0;" edge="1" parent="1" source="hGEJ_rP9lvM_vHhC3qoH-4" target="hGEJ_rP9lvM_vHhC3qoH-14">
          <mxGeometry relative="1" as="geometry">
            <mxPoint x="340" y="430" as="sourcePoint" />
            <mxPoint x="340" y="480" as="targetPoint" />
          </mxGeometry>
        </mxCell>
        <mxCell id="hGEJ_rP9lvM_vHhC3qoH-20" value="1" style="resizable=0;html=1;whiteSpace=wrap;align=right;verticalAlign=bottom;" connectable="0" vertex="1" parent="hGEJ_rP9lvM_vHhC3qoH-19">
          <mxGeometry x="1" relative="1" as="geometry">
            <mxPoint x="-8" y="-1" as="offset" />
          </mxGeometry>
        </mxCell>
        <mxCell id="hGEJ_rP9lvM_vHhC3qoH-21" value="Has" style="shape=rhombus;double=1;perimeter=rhombusPerimeter;whiteSpace=wrap;html=1;align=center;" vertex="1" parent="1">
          <mxGeometry x="470" y="700" width="120" height="60" as="geometry" />
        </mxCell>
        <mxCell id="hGEJ_rP9lvM_vHhC3qoH-22" value="" style="endArrow=none;html=1;rounded=0;" edge="1" parent="1" source="hGEJ_rP9lvM_vHhC3qoH-5" target="hGEJ_rP9lvM_vHhC3qoH-21">
          <mxGeometry relative="1" as="geometry">
            <mxPoint x="332" y="640" as="sourcePoint" />
            <mxPoint x="338" y="711" as="targetPoint" />
          </mxGeometry>
        </mxCell>
        <mxCell id="hGEJ_rP9lvM_vHhC3qoH-23" value="1" style="resizable=0;html=1;whiteSpace=wrap;align=right;verticalAlign=bottom;" connectable="0" vertex="1" parent="hGEJ_rP9lvM_vHhC3qoH-22">
          <mxGeometry x="1" relative="1" as="geometry">
            <mxPoint x="-19" y="20" as="offset" />
          </mxGeometry>
        </mxCell>
        <mxCell id="hGEJ_rP9lvM_vHhC3qoH-24" value="" style="shape=link;html=1;rounded=0;" edge="1" parent="1" source="hGEJ_rP9lvM_vHhC3qoH-6" target="hGEJ_rP9lvM_vHhC3qoH-21">
          <mxGeometry relative="1" as="geometry">
            <mxPoint x="340" y="870" as="sourcePoint" />
            <mxPoint x="340" y="770" as="targetPoint" />
          </mxGeometry>
        </mxCell>
        <mxCell id="hGEJ_rP9lvM_vHhC3qoH-25" value="N" style="resizable=0;html=1;whiteSpace=wrap;align=right;verticalAlign=bottom;" connectable="0" vertex="1" parent="hGEJ_rP9lvM_vHhC3qoH-24">
          <mxGeometry x="1" relative="1" as="geometry">
            <mxPoint x="7" y="-7" as="offset" />
          </mxGeometry>
        </mxCell>
        <mxCell id="hGEJ_rP9lvM_vHhC3qoH-26" value="&lt;span style=&quot;border-bottom: 1px dotted&quot;&gt;ID&lt;/span&gt;" style="ellipse;whiteSpace=wrap;html=1;align=center;" vertex="1" parent="1">
          <mxGeometry x="780" y="690" width="100" height="40" as="geometry" />
        </mxCell>
        <mxCell id="hGEJ_rP9lvM_vHhC3qoH-27" value="Description" style="ellipse;whiteSpace=wrap;html=1;align=center;" vertex="1" parent="1">
          <mxGeometry x="740" y="760" width="100" height="40" as="geometry" />
        </mxCell>
        <mxCell id="hGEJ_rP9lvM_vHhC3qoH-28" value="IsCorrect" style="ellipse;whiteSpace=wrap;html=1;align=center;" vertex="1" parent="1">
          <mxGeometry x="610" y="750" width="100" height="40" as="geometry" />
        </mxCell>
        <mxCell id="hGEJ_rP9lvM_vHhC3qoH-30" value="" style="endArrow=none;html=1;rounded=0;" edge="1" parent="1" source="hGEJ_rP9lvM_vHhC3qoH-6" target="hGEJ_rP9lvM_vHhC3qoH-26">
          <mxGeometry width="50" height="50" relative="1" as="geometry">
            <mxPoint x="577.33" y="675.22" as="sourcePoint" />
            <mxPoint x="620.0025669455268" y="560.0040692470782" as="targetPoint" />
          </mxGeometry>
        </mxCell>
        <mxCell id="hGEJ_rP9lvM_vHhC3qoH-31" value="" style="endArrow=none;html=1;rounded=0;" edge="1" parent="1" source="hGEJ_rP9lvM_vHhC3qoH-6" target="hGEJ_rP9lvM_vHhC3qoH-27">
          <mxGeometry width="50" height="50" relative="1" as="geometry">
            <mxPoint x="669" y="660" as="sourcePoint" />
            <mxPoint x="631" y="594" as="targetPoint" />
          </mxGeometry>
        </mxCell>
        <mxCell id="hGEJ_rP9lvM_vHhC3qoH-32" value="" style="endArrow=none;html=1;rounded=0;" edge="1" parent="1" source="hGEJ_rP9lvM_vHhC3qoH-6" target="hGEJ_rP9lvM_vHhC3qoH-28">
          <mxGeometry width="50" height="50" relative="1" as="geometry">
            <mxPoint x="693" y="660" as="sourcePoint" />
            <mxPoint x="727" y="609" as="targetPoint" />
          </mxGeometry>
        </mxCell>
        <mxCell id="hGEJ_rP9lvM_vHhC3qoH-33" value="&lt;span style=&quot;border-bottom: 1px dotted&quot;&gt;ID&lt;/span&gt;" style="ellipse;whiteSpace=wrap;html=1;align=center;" vertex="1" parent="1">
          <mxGeometry x="160" y="820" width="100" height="40" as="geometry" />
        </mxCell>
        <mxCell id="hGEJ_rP9lvM_vHhC3qoH-34" value="Description" style="ellipse;whiteSpace=wrap;html=1;align=center;" vertex="1" parent="1">
          <mxGeometry x="120" y="890" width="100" height="40" as="geometry" />
        </mxCell>
        <mxCell id="hGEJ_rP9lvM_vHhC3qoH-35" value="" style="endArrow=none;html=1;rounded=0;" edge="1" parent="1" source="hGEJ_rP9lvM_vHhC3qoH-5" target="hGEJ_rP9lvM_vHhC3qoH-34">
          <mxGeometry width="50" height="50" relative="1" as="geometry">
            <mxPoint x="669" y="660" as="sourcePoint" />
            <mxPoint x="631" y="594" as="targetPoint" />
          </mxGeometry>
        </mxCell>
        <mxCell id="hGEJ_rP9lvM_vHhC3qoH-36" value="" style="endArrow=none;html=1;rounded=0;" edge="1" parent="1" source="hGEJ_rP9lvM_vHhC3qoH-5" target="hGEJ_rP9lvM_vHhC3qoH-33">
          <mxGeometry width="50" height="50" relative="1" as="geometry">
            <mxPoint x="290" y="899" as="sourcePoint" />
            <mxPoint x="225" y="912" as="targetPoint" />
          </mxGeometry>
        </mxCell>
        <mxCell id="hGEJ_rP9lvM_vHhC3qoH-38" value="Title" style="ellipse;whiteSpace=wrap;html=1;align=center;" vertex="1" parent="1">
          <mxGeometry x="100" y="630" width="100" height="40" as="geometry" />
        </mxCell>
        <mxCell id="hGEJ_rP9lvM_vHhC3qoH-39" value="&lt;span style=&quot;border-bottom: 1px dotted&quot;&gt;ID&lt;/span&gt;" style="ellipse;whiteSpace=wrap;html=1;align=center;" vertex="1" parent="1">
          <mxGeometry x="100" y="565" width="100" height="40" as="geometry" />
        </mxCell>
        <mxCell id="hGEJ_rP9lvM_vHhC3qoH-41" value="" style="endArrow=none;html=1;rounded=0;" edge="1" parent="1" source="hGEJ_rP9lvM_vHhC3qoH-4" target="hGEJ_rP9lvM_vHhC3qoH-38">
          <mxGeometry width="50" height="50" relative="1" as="geometry">
            <mxPoint x="290" y="873" as="sourcePoint" />
            <mxPoint x="258" y="863" as="targetPoint" />
          </mxGeometry>
        </mxCell>
        <mxCell id="hGEJ_rP9lvM_vHhC3qoH-42" value="" style="endArrow=none;html=1;rounded=0;" edge="1" parent="1" source="hGEJ_rP9lvM_vHhC3qoH-4" target="hGEJ_rP9lvM_vHhC3qoH-39">
          <mxGeometry width="50" height="50" relative="1" as="geometry">
            <mxPoint x="280" y="632" as="sourcePoint" />
            <mxPoint x="203" y="650" as="targetPoint" />
          </mxGeometry>
        </mxCell>
        <mxCell id="hGEJ_rP9lvM_vHhC3qoH-43" value="ID" style="ellipse;whiteSpace=wrap;html=1;align=center;fontStyle=4;" vertex="1" parent="1">
          <mxGeometry x="110" y="370" width="100" height="40" as="geometry" />
        </mxCell>
        <mxCell id="hGEJ_rP9lvM_vHhC3qoH-44" value="Name" style="ellipse;whiteSpace=wrap;html=1;align=center;" vertex="1" parent="1">
          <mxGeometry x="130" y="430" width="100" height="40" as="geometry" />
        </mxCell>
        <mxCell id="hGEJ_rP9lvM_vHhC3qoH-45" value="Join Code" style="ellipse;whiteSpace=wrap;html=1;align=center;" vertex="1" parent="1">
          <mxGeometry x="400" y="350" width="100" height="40" as="geometry" />
        </mxCell>
        <mxCell id="hGEJ_rP9lvM_vHhC3qoH-46" value="" style="endArrow=none;html=1;rounded=0;" edge="1" parent="1" source="hGEJ_rP9lvM_vHhC3qoH-3" target="hGEJ_rP9lvM_vHhC3qoH-44">
          <mxGeometry width="50" height="50" relative="1" as="geometry">
            <mxPoint x="280" y="613" as="sourcePoint" />
            <mxPoint x="207" y="602" as="targetPoint" />
          </mxGeometry>
        </mxCell>
        <mxCell id="hGEJ_rP9lvM_vHhC3qoH-47" value="" style="endArrow=none;html=1;rounded=0;" edge="1" parent="1" source="hGEJ_rP9lvM_vHhC3qoH-3" target="hGEJ_rP9lvM_vHhC3qoH-43">
          <mxGeometry width="50" height="50" relative="1" as="geometry">
            <mxPoint x="290" y="427" as="sourcePoint" />
            <mxPoint x="198" y="457" as="targetPoint" />
          </mxGeometry>
        </mxCell>
        <mxCell id="hGEJ_rP9lvM_vHhC3qoH-48" value="" style="endArrow=none;html=1;rounded=0;" edge="1" parent="1" source="hGEJ_rP9lvM_vHhC3qoH-3" target="hGEJ_rP9lvM_vHhC3qoH-45">
          <mxGeometry width="50" height="50" relative="1" as="geometry">
            <mxPoint x="290" y="407" as="sourcePoint" />
            <mxPoint x="220" y="403" as="targetPoint" />
          </mxGeometry>
        </mxCell>
        <mxCell id="hGEJ_rP9lvM_vHhC3qoH-50" value="Teach" style="shape=rhombus;perimeter=rhombusPerimeter;whiteSpace=wrap;html=1;align=center;" vertex="1" parent="1">
          <mxGeometry x="180" y="240" width="120" height="60" as="geometry" />
        </mxCell>
        <mxCell id="hGEJ_rP9lvM_vHhC3qoH-51" value="In class" style="shape=rhombus;perimeter=rhombusPerimeter;whiteSpace=wrap;html=1;align=center;" vertex="1" parent="1">
          <mxGeometry x="370" y="240" width="120" height="60" as="geometry" />
        </mxCell>
        <mxCell id="hGEJ_rP9lvM_vHhC3qoH-52" value="" style="endArrow=none;html=1;rounded=0;" edge="1" parent="1" source="hGEJ_rP9lvM_vHhC3qoH-2" target="hGEJ_rP9lvM_vHhC3qoH-51">
          <mxGeometry relative="1" as="geometry">
            <mxPoint x="360" y="350" as="sourcePoint" />
            <mxPoint x="520" y="350" as="targetPoint" />
          </mxGeometry>
        </mxCell>
        <mxCell id="hGEJ_rP9lvM_vHhC3qoH-53" value="N" style="resizable=0;html=1;whiteSpace=wrap;align=right;verticalAlign=bottom;direction=south;" connectable="0" vertex="1" parent="hGEJ_rP9lvM_vHhC3qoH-52">
          <mxGeometry x="1" relative="1" as="geometry">
            <mxPoint y="-5" as="offset" />
          </mxGeometry>
        </mxCell>
        <mxCell id="hGEJ_rP9lvM_vHhC3qoH-57" value="" style="endArrow=none;html=1;rounded=0;" edge="1" parent="1" source="hGEJ_rP9lvM_vHhC3qoH-3" target="hGEJ_rP9lvM_vHhC3qoH-51">
          <mxGeometry relative="1" as="geometry">
            <mxPoint x="541" y="210" as="sourcePoint" />
            <mxPoint x="511" y="276" as="targetPoint" />
          </mxGeometry>
        </mxCell>
        <mxCell id="hGEJ_rP9lvM_vHhC3qoH-58" value="N" style="resizable=0;html=1;whiteSpace=wrap;align=right;verticalAlign=bottom;direction=south;" connectable="0" vertex="1" parent="hGEJ_rP9lvM_vHhC3qoH-57">
          <mxGeometry x="1" relative="1" as="geometry">
            <mxPoint x="-25" y="13" as="offset" />
          </mxGeometry>
        </mxCell>
        <mxCell id="hGEJ_rP9lvM_vHhC3qoH-61" value="" style="shape=link;html=1;rounded=0;" edge="1" parent="1" source="hGEJ_rP9lvM_vHhC3qoH-3" target="hGEJ_rP9lvM_vHhC3qoH-50">
          <mxGeometry relative="1" as="geometry">
            <mxPoint x="360" y="350" as="sourcePoint" />
            <mxPoint x="520" y="350" as="targetPoint" />
          </mxGeometry>
        </mxCell>
        <mxCell id="hGEJ_rP9lvM_vHhC3qoH-62" value="N" style="resizable=0;html=1;whiteSpace=wrap;align=right;verticalAlign=bottom;" connectable="0" vertex="1" parent="hGEJ_rP9lvM_vHhC3qoH-61">
          <mxGeometry x="1" relative="1" as="geometry">
            <mxPoint x="25" y="8" as="offset" />
          </mxGeometry>
        </mxCell>
        <mxCell id="hGEJ_rP9lvM_vHhC3qoH-64" value="" style="endArrow=none;html=1;rounded=0;" edge="1" parent="1" source="hGEJ_rP9lvM_vHhC3qoH-1" target="hGEJ_rP9lvM_vHhC3qoH-50">
          <mxGeometry relative="1" as="geometry">
            <mxPoint x="340" y="430" as="sourcePoint" />
            <mxPoint x="340" y="480" as="targetPoint" />
          </mxGeometry>
        </mxCell>
        <mxCell id="hGEJ_rP9lvM_vHhC3qoH-65" value="1" style="resizable=0;html=1;whiteSpace=wrap;align=right;verticalAlign=bottom;" connectable="0" vertex="1" parent="hGEJ_rP9lvM_vHhC3qoH-64">
          <mxGeometry x="1" relative="1" as="geometry">
            <mxPoint x="4" y="-7" as="offset" />
          </mxGeometry>
        </mxCell>
        <mxCell id="hGEJ_rP9lvM_vHhC3qoH-78" value="User" style="whiteSpace=wrap;html=1;align=center;" vertex="1" parent="1">
          <mxGeometry x="314" y="-70" width="100" height="40" as="geometry" />
        </mxCell>
        <mxCell id="hGEJ_rP9lvM_vHhC3qoH-79" value="ID" style="ellipse;whiteSpace=wrap;html=1;align=center;fontStyle=4;" vertex="1" parent="1">
          <mxGeometry x="350" y="-140" width="100" height="40" as="geometry" />
        </mxCell>
        <mxCell id="hGEJ_rP9lvM_vHhC3qoH-80" value="Name" style="ellipse;whiteSpace=wrap;html=1;align=center;" vertex="1" parent="1">
          <mxGeometry x="180" y="-140" width="100" height="40" as="geometry" />
        </mxCell>
        <mxCell id="hGEJ_rP9lvM_vHhC3qoH-81" value="Username" style="ellipse;whiteSpace=wrap;html=1;align=center;" vertex="1" parent="1">
          <mxGeometry x="480" y="-80" width="100" height="40" as="geometry" />
        </mxCell>
        <mxCell id="hGEJ_rP9lvM_vHhC3qoH-82" value="Password" style="ellipse;whiteSpace=wrap;html=1;align=center;" vertex="1" parent="1">
          <mxGeometry x="160" y="-60" width="100" height="40" as="geometry" />
        </mxCell>
        <mxCell id="hGEJ_rP9lvM_vHhC3qoH-83" value="" style="endArrow=none;html=1;rounded=0;" edge="1" parent="1" source="hGEJ_rP9lvM_vHhC3qoH-78" target="hGEJ_rP9lvM_vHhC3qoH-82">
          <mxGeometry width="50" height="50" relative="1" as="geometry">
            <mxPoint x="158" y="170" as="sourcePoint" />
            <mxPoint x="152" y="110" as="targetPoint" />
          </mxGeometry>
        </mxCell>
        <mxCell id="hGEJ_rP9lvM_vHhC3qoH-84" value="" style="endArrow=none;html=1;rounded=0;" edge="1" parent="1" source="hGEJ_rP9lvM_vHhC3qoH-78" target="hGEJ_rP9lvM_vHhC3qoH-80">
          <mxGeometry width="50" height="50" relative="1" as="geometry">
            <mxPoint x="340" y="-74" as="sourcePoint" />
            <mxPoint x="278" y="-66" as="targetPoint" />
          </mxGeometry>
        </mxCell>
        <mxCell id="hGEJ_rP9lvM_vHhC3qoH-85" value="" style="endArrow=none;html=1;rounded=0;" edge="1" parent="1" source="hGEJ_rP9lvM_vHhC3qoH-78" target="hGEJ_rP9lvM_vHhC3qoH-79">
          <mxGeometry width="50" height="50" relative="1" as="geometry">
            <mxPoint x="350" y="-100" as="sourcePoint" />
            <mxPoint x="281" y="-134" as="targetPoint" />
          </mxGeometry>
        </mxCell>
        <mxCell id="hGEJ_rP9lvM_vHhC3qoH-86" value="" style="endArrow=none;html=1;rounded=0;" edge="1" parent="1" source="hGEJ_rP9lvM_vHhC3qoH-78" target="hGEJ_rP9lvM_vHhC3qoH-81">
          <mxGeometry width="50" height="50" relative="1" as="geometry">
            <mxPoint x="382" y="-100" as="sourcePoint" />
            <mxPoint x="348" y="-180" as="targetPoint" />
          </mxGeometry>
        </mxCell>
        <mxCell id="hGEJ_rP9lvM_vHhC3qoH-87" value="d" style="ellipse;whiteSpace=wrap;html=1;aspect=fixed;" vertex="1" parent="1">
          <mxGeometry x="340" y="60" width="20" height="20" as="geometry" />
        </mxCell>
        <mxCell id="hGEJ_rP9lvM_vHhC3qoH-88" value="" style="shape=link;html=1;rounded=0;" edge="1" parent="1" source="hGEJ_rP9lvM_vHhC3qoH-78" target="hGEJ_rP9lvM_vHhC3qoH-87">
          <mxGeometry relative="1" as="geometry">
            <mxPoint x="360" y="-20" as="sourcePoint" />
            <mxPoint x="520" y="-20" as="targetPoint" />
          </mxGeometry>
        </mxCell>
        <mxCell id="hGEJ_rP9lvM_vHhC3qoH-90" value="" style="endArrow=none;html=1;rounded=0;" edge="1" parent="1" source="hGEJ_rP9lvM_vHhC3qoH-87" target="hGEJ_rP9lvM_vHhC3qoH-1">
          <mxGeometry relative="1" as="geometry">
            <mxPoint x="180" y="210" as="sourcePoint" />
            <mxPoint x="230" y="260" as="targetPoint" />
          </mxGeometry>
        </mxCell>
        <mxCell id="hGEJ_rP9lvM_vHhC3qoH-92" value="" style="endArrow=none;html=1;rounded=0;" edge="1" parent="1" source="hGEJ_rP9lvM_vHhC3qoH-87" target="hGEJ_rP9lvM_vHhC3qoH-2">
          <mxGeometry relative="1" as="geometry">
            <mxPoint x="372" y="46" as="sourcePoint" />
            <mxPoint x="189" y="170" as="targetPoint" />
          </mxGeometry>
        </mxCell>
        <mxCell id="hGEJ_rP9lvM_vHhC3qoH-94" value="Submission" style="whiteSpace=wrap;html=1;align=center;" vertex="1" parent="1">
          <mxGeometry x="640" y="390" width="100" height="40" as="geometry" />
        </mxCell>
        <mxCell id="hGEJ_rP9lvM_vHhC3qoH-95" value="Period" style="ellipse;whiteSpace=wrap;html=1;align=center;" vertex="1" parent="1">
          <mxGeometry x="120" y="690" width="100" height="40" as="geometry" />
        </mxCell>
        <mxCell id="hGEJ_rP9lvM_vHhC3qoH-96" value="Start time" style="ellipse;whiteSpace=wrap;html=1;align=center;" vertex="1" parent="1">
          <mxGeometry x="140" y="510" width="100" height="40" as="geometry" />
        </mxCell>
        <mxCell id="hGEJ_rP9lvM_vHhC3qoH-97" value="End time" style="ellipse;whiteSpace=wrap;html=1;align=center;" vertex="1" parent="1">
          <mxGeometry x="430" y="610" width="100" height="40" as="geometry" />
        </mxCell>
        <mxCell id="hGEJ_rP9lvM_vHhC3qoH-98" value="Passcode" style="ellipse;whiteSpace=wrap;html=1;align=center;" vertex="1" parent="1">
          <mxGeometry x="390" y="670" width="100" height="40" as="geometry" />
        </mxCell>
        <mxCell id="hGEJ_rP9lvM_vHhC3qoH-99" value="" style="endArrow=none;html=1;rounded=0;" edge="1" parent="1" source="hGEJ_rP9lvM_vHhC3qoH-4" target="hGEJ_rP9lvM_vHhC3qoH-95">
          <mxGeometry width="50" height="50" relative="1" as="geometry">
            <mxPoint x="280" y="632" as="sourcePoint" />
            <mxPoint x="203" y="650" as="targetPoint" />
          </mxGeometry>
        </mxCell>
        <mxCell id="hGEJ_rP9lvM_vHhC3qoH-100" value="" style="endArrow=none;html=1;rounded=0;" edge="1" parent="1" source="hGEJ_rP9lvM_vHhC3qoH-4" target="hGEJ_rP9lvM_vHhC3qoH-98">
          <mxGeometry width="50" height="50" relative="1" as="geometry">
            <mxPoint x="300" y="640" as="sourcePoint" />
            <mxPoint x="206" y="703" as="targetPoint" />
          </mxGeometry>
        </mxCell>
        <mxCell id="hGEJ_rP9lvM_vHhC3qoH-101" value="" style="endArrow=none;html=1;rounded=0;" edge="1" parent="1" source="hGEJ_rP9lvM_vHhC3qoH-4" target="hGEJ_rP9lvM_vHhC3qoH-97">
          <mxGeometry width="50" height="50" relative="1" as="geometry">
            <mxPoint x="378" y="640" as="sourcePoint" />
            <mxPoint x="439" y="666" as="targetPoint" />
          </mxGeometry>
        </mxCell>
        <mxCell id="hGEJ_rP9lvM_vHhC3qoH-102" value="" style="endArrow=none;html=1;rounded=0;" edge="1" parent="1" source="hGEJ_rP9lvM_vHhC3qoH-4" target="hGEJ_rP9lvM_vHhC3qoH-96">
          <mxGeometry width="50" height="50" relative="1" as="geometry">
            <mxPoint x="380" y="620" as="sourcePoint" />
            <mxPoint x="440" y="620" as="targetPoint" />
          </mxGeometry>
        </mxCell>
        <mxCell id="hGEJ_rP9lvM_vHhC3qoH-104" value="ID" style="ellipse;whiteSpace=wrap;html=1;align=center;fontStyle=4;" vertex="1" parent="1">
          <mxGeometry x="790" y="360" width="100" height="40" as="geometry" />
        </mxCell>
        <mxCell id="hGEJ_rP9lvM_vHhC3qoH-105" value="" style="endArrow=none;html=1;rounded=0;" edge="1" parent="1" source="hGEJ_rP9lvM_vHhC3qoH-104" target="hGEJ_rP9lvM_vHhC3qoH-94">
          <mxGeometry width="50" height="50" relative="1" as="geometry">
            <mxPoint x="290" y="407" as="sourcePoint" />
            <mxPoint x="220" y="403" as="targetPoint" />
          </mxGeometry>
        </mxCell>
        <mxCell id="hGEJ_rP9lvM_vHhC3qoH-106" value="Submission time" style="ellipse;whiteSpace=wrap;html=1;align=center;" vertex="1" parent="1">
          <mxGeometry x="820" y="420" width="100" height="40" as="geometry" />
        </mxCell>
        <mxCell id="hGEJ_rP9lvM_vHhC3qoH-107" value="" style="endArrow=none;html=1;rounded=0;" edge="1" parent="1" source="hGEJ_rP9lvM_vHhC3qoH-106" target="hGEJ_rP9lvM_vHhC3qoH-94">
          <mxGeometry width="50" height="50" relative="1" as="geometry">
            <mxPoint x="805" y="399" as="sourcePoint" />
            <mxPoint x="750" y="410" as="targetPoint" />
          </mxGeometry>
        </mxCell>
        <mxCell id="hGEJ_rP9lvM_vHhC3qoH-108" value="Has" style="shape=rhombus;perimeter=rhombusPerimeter;whiteSpace=wrap;html=1;align=center;" vertex="1" parent="1">
          <mxGeometry x="600" y="260" width="120" height="60" as="geometry" />
        </mxCell>
        <mxCell id="hGEJ_rP9lvM_vHhC3qoH-111" value="" style="endArrow=none;html=1;rounded=0;" edge="1" parent="1" source="hGEJ_rP9lvM_vHhC3qoH-2" target="hGEJ_rP9lvM_vHhC3qoH-108">
          <mxGeometry relative="1" as="geometry">
            <mxPoint x="180" y="210" as="sourcePoint" />
            <mxPoint x="230" y="260" as="targetPoint" />
          </mxGeometry>
        </mxCell>
        <mxCell id="hGEJ_rP9lvM_vHhC3qoH-112" value="1" style="resizable=0;html=1;whiteSpace=wrap;align=right;verticalAlign=bottom;" connectable="0" vertex="1" parent="hGEJ_rP9lvM_vHhC3qoH-111">
          <mxGeometry x="1" relative="1" as="geometry">
            <mxPoint x="4" y="-7" as="offset" />
          </mxGeometry>
        </mxCell>
        <mxCell id="hGEJ_rP9lvM_vHhC3qoH-113" value="Of" style="shape=rhombus;perimeter=rhombusPerimeter;whiteSpace=wrap;html=1;align=center;" vertex="1" parent="1">
          <mxGeometry x="450" y="460" width="120" height="60" as="geometry" />
        </mxCell>
        <mxCell id="hGEJ_rP9lvM_vHhC3qoH-116" value="" style="endArrow=none;html=1;rounded=0;" edge="1" parent="1" source="hGEJ_rP9lvM_vHhC3qoH-4" target="hGEJ_rP9lvM_vHhC3qoH-113">
          <mxGeometry relative="1" as="geometry">
            <mxPoint x="572" y="210" as="sourcePoint" />
            <mxPoint x="649" y="281" as="targetPoint" />
          </mxGeometry>
        </mxCell>
        <mxCell id="hGEJ_rP9lvM_vHhC3qoH-117" value="1" style="resizable=0;html=1;whiteSpace=wrap;align=right;verticalAlign=bottom;" connectable="0" vertex="1" parent="hGEJ_rP9lvM_vHhC3qoH-116">
          <mxGeometry x="1" relative="1" as="geometry">
            <mxPoint x="-32" y="14" as="offset" />
          </mxGeometry>
        </mxCell>
        <mxCell id="hGEJ_rP9lvM_vHhC3qoH-118" value="Score" style="ellipse;whiteSpace=wrap;html=1;align=center;" vertex="1" parent="1">
          <mxGeometry x="800" y="470" width="100" height="40" as="geometry" />
        </mxCell>
        <mxCell id="hGEJ_rP9lvM_vHhC3qoH-119" value="" style="endArrow=none;html=1;rounded=0;" edge="1" parent="1" source="hGEJ_rP9lvM_vHhC3qoH-118" target="hGEJ_rP9lvM_vHhC3qoH-94">
          <mxGeometry width="50" height="50" relative="1" as="geometry">
            <mxPoint x="822" y="434" as="sourcePoint" />
            <mxPoint x="750" y="426" as="targetPoint" />
          </mxGeometry>
        </mxCell>
        <mxCell id="hGEJ_rP9lvM_vHhC3qoH-120" value="Student choice" style="shape=rhombus;perimeter=rhombusPerimeter;whiteSpace=wrap;html=1;align=center;" vertex="1" parent="1">
          <mxGeometry x="630" y="505" width="120" height="60" as="geometry" />
        </mxCell>
        <mxCell id="hGEJ_rP9lvM_vHhC3qoH-121" value="" style="endArrow=none;html=1;rounded=0;" edge="1" parent="1" source="hGEJ_rP9lvM_vHhC3qoH-94" target="hGEJ_rP9lvM_vHhC3qoH-120">
          <mxGeometry relative="1" as="geometry">
            <mxPoint x="655" y="440" as="sourcePoint" />
            <mxPoint x="552" y="486" as="targetPoint" />
          </mxGeometry>
        </mxCell>
        <mxCell id="hGEJ_rP9lvM_vHhC3qoH-122" value="N" style="resizable=0;html=1;whiteSpace=wrap;align=right;verticalAlign=bottom;direction=south;" connectable="0" vertex="1" parent="hGEJ_rP9lvM_vHhC3qoH-121">
          <mxGeometry x="1" relative="1" as="geometry">
            <mxPoint x="20" y="-5" as="offset" />
          </mxGeometry>
        </mxCell>
        <mxCell id="hGEJ_rP9lvM_vHhC3qoH-123" value="" style="endArrow=none;html=1;rounded=0;" edge="1" parent="1" source="hGEJ_rP9lvM_vHhC3qoH-6" target="hGEJ_rP9lvM_vHhC3qoH-120">
          <mxGeometry relative="1" as="geometry">
            <mxPoint x="700" y="440" as="sourcePoint" />
            <mxPoint x="780" y="610" as="targetPoint" />
          </mxGeometry>
        </mxCell>
        <mxCell id="hGEJ_rP9lvM_vHhC3qoH-124" value="N" style="resizable=0;html=1;whiteSpace=wrap;align=right;verticalAlign=bottom;direction=south;" connectable="0" vertex="1" parent="hGEJ_rP9lvM_vHhC3qoH-123">
          <mxGeometry x="1" relative="1" as="geometry">
            <mxPoint x="20" y="22" as="offset" />
          </mxGeometry>
        </mxCell>
        <mxCell id="whyt7Ld5CJliq4HAIPWT-1" value="" style="shape=link;html=1;rounded=0;" edge="1" parent="1" source="hGEJ_rP9lvM_vHhC3qoH-94" target="hGEJ_rP9lvM_vHhC3qoH-108">
          <mxGeometry relative="1" as="geometry">
            <mxPoint x="326" y="390" as="sourcePoint" />
            <mxPoint x="265" y="302" as="targetPoint" />
          </mxGeometry>
        </mxCell>
        <mxCell id="whyt7Ld5CJliq4HAIPWT-2" value="N" style="resizable=0;html=1;whiteSpace=wrap;align=right;verticalAlign=bottom;" connectable="0" vertex="1" parent="whyt7Ld5CJliq4HAIPWT-1">
          <mxGeometry x="1" relative="1" as="geometry">
            <mxPoint x="23" y="14" as="offset" />
          </mxGeometry>
        </mxCell>
        <mxCell id="whyt7Ld5CJliq4HAIPWT-3" value="" style="shape=link;html=1;rounded=0;" edge="1" parent="1" source="hGEJ_rP9lvM_vHhC3qoH-94" target="hGEJ_rP9lvM_vHhC3qoH-113">
          <mxGeometry relative="1" as="geometry">
            <mxPoint x="695" y="400" as="sourcePoint" />
            <mxPoint x="677" y="327" as="targetPoint" />
          </mxGeometry>
        </mxCell>
        <mxCell id="whyt7Ld5CJliq4HAIPWT-4" value="N" style="resizable=0;html=1;whiteSpace=wrap;align=right;verticalAlign=bottom;" connectable="0" vertex="1" parent="whyt7Ld5CJliq4HAIPWT-3">
          <mxGeometry x="1" relative="1" as="geometry">
            <mxPoint x="38" y="8" as="offset" />
          </mxGeometry>
        </mxCell>
        <mxCell id="OsdUMqK9o-HB7LL2RfPn-1" value="Student: STUDENT&amp;lt;number&amp;gt;&lt;br&gt;Teacher: TEACHER&amp;lt;number&amp;gt;&lt;br&gt;Class: CLASS&amp;lt;number&amp;gt;&lt;br&gt;Test: TEST&amp;lt;number&amp;gt;&lt;br&gt;Question: QUESTION&amp;lt;number&amp;gt;&lt;br&gt;Answer: ANSWER&amp;lt;number&amp;gt;&lt;br&gt;Submission: SUBMIT&amp;lt;number&amp;gt;" style="text;html=1;strokeColor=none;fillColor=none;align=left;verticalAlign=middle;whiteSpace=wrap;rounded=0;" vertex="1" parent="1">
          <mxGeometry x="880" y="170" width="230" height="110" as="geometry" />
        </mxCell>
      </root>
    </mxGraphModel>
  </diagram>
</mxfile>
